<svg xmlns="http://www.w3.org/2000/svg" width="1024" height="1024" viewBox="-51.5 -51.5 1127.0 1127.0">
  <g fill="none" stroke="black" stroke-width="45" stroke-linecap="round" stroke-linejoin="round">
    <path d="M 847.597,709.575 C 870.93,685.167 883.212,669.656 893.902,651.527 C 902.073,631.726 907.697,609.726 909.809,586.624 C 909.384,574.048 907.899,561.122 902.727,539.172 C 897.547,524.962 892.359,514.036 880.455,494.474 C 865.263,476.541 847.781,461.648 836.209,453.975 C 826.657,448.802 804.54,439.969 784.314,435.224 C 759.923,433.169 739.188,434.698 713.855,440.512 C 693.942,448.594 673.598,460.571 663.685,468.117 C 653.802,477.043 644.726,486.83 636.842,496.949 C 624.568,517.498 616.377,537.438 611.135,557.631 C 609.1,572.864 608.623,582.873 610.549,608.217 C 614.948,628.288 622.715,648.797 634.283,669.413 Q 641.962,679.788 665.121,706.445" data-line="nan"  stroke-width="45.0"/>
    <path d="M 847.0366555373531,708.7475612253104 A 157.64933107868455,157.64933107868455 0 0,1 665.7459133703422,705.5881189914135" data-line="0.0"  stroke-width="45.0"/>
    <path d="M 931.99,939.966 L 847.597,709.575" data-line="1.0"  stroke-width="45.0"/>
    <path d="M 931.99,939.966 L 756.822,813.107" data-line="2.0"  stroke-width="45.0"/>
    <path d="M 756.822,813.107 L 582.456,940.655" data-line="3.0"  stroke-width="45.0"/>
    <path d="M 665.121,706.445 L 582.456,940.655" data-line="4.0"  stroke-width="45.0"/>
    <path d="M 1019.991,83.362 L 4.0,83.345" data-line="6.0"  stroke-width="45.0"/>
    <path d="M 1020.0,757.746 L 1019.991,83.362" data-line="7.0"  stroke-width="45.0"/>
    <path d="M 1020.0,757.746 L 867.182,757.813" data-line="8.0"  stroke-width="45.0"/>
    <path d="M 646.17,757.803 L 4.009,757.813" data-line="9.0"  stroke-width="45.0"/>
    <path d="M 4.009,757.813 L 4.0,83.345" data-line="10.0"  stroke-width="45.0"/>
    <path d="M 215.237,248.534 L 808.754,248.38" data-line="27.0"  stroke-width="45.0"/>
    <path d="M 213.247,405.324 L 568.196,405.121" data-line="28.0"  stroke-width="45.0"/>
    <path d="M 211.551,560.868 L 454.554,560.87" data-line="29.0"  stroke-width="45.0"/>
  </g>
</svg>