<svg xmlns="http://www.w3.org/2000/svg" width="1024" height="1024" viewBox="-51.5 -51.5 1127.0 1127.0">
  <g fill="none" stroke="black" stroke-width="45" stroke-linecap="round" stroke-linejoin="round">
    <path d="M 49.279,920.549 C 51.088,945.093 56.435,965.747 60.193,973.972 C 65.202,982.308 72.095,991.144 80.108,999.116 C 89.922,1006.418 97.02,1010.45 106.004,1014.169 C 117.599,1017.59 134.121,1019.908 167.724,1019.947" data-line="nan"  stroke-width="45.0"/>
    <path d="M 884.571,1020.0 C 895.82,1019.716 910.164,1018.01 920.856,1015.821 C 930.083,1012.716 939.077,1008.183 947.786,1002.227 C 956.426,994.527 963.906,985.884 969.411,977.579 C 974.097,968.275 979.687,950.778 981.861,932.293 L 982.037,894.414" data-line="nan"  stroke-width="45.0"/>
    <path d="M 515.18,87.366 L 514.467,87.245" data-line="0.0"  stroke-width="45.0"/>
    <path d="M 514.467,87.245 L 515.549,81.976" data-line="1.0"  stroke-width="45.0"/>
    <path d="M 515.549,81.976 L 515.656,750.213" data-line="2.0"  stroke-width="45.0"/>
    <path d="M 516.323,17.259 L 289.62,241.316" data-line="3.0"  stroke-width="45.0"/>
    <path d="M 742.267,241.979 L 516.323,17.259" data-line="5.0"  stroke-width="45.0"/>
    <path d="M 49.44,723.902 L 49.279,920.549" data-line="8.0"  stroke-width="45.0"/>
    <path d="M 167.724,1019.947 L 884.571,1020.0" data-line="10.0"  stroke-width="45.0"/>
    <path d="M 982.037,894.414 L 981.957,725.769" data-line="12.0"  stroke-width="45.0"/>
  </g>
</svg>